<svg xmlns="http://www.w3.org/2000/svg" width="1920" height="1080"><path d="M184,1525L-91,1543L950,1580Z" fill="#2f3339" stroke="#2f3339" stroke-width="1.51"/><path d="M12,-571L650,-372L1426,-411Z" fill="#3a4553" stroke="#3a4553" stroke-width="1.51"/><path d="M12,-571L1426,-411L2069,-627Z" fill="#384351" stroke="#384351" stroke-width="1.51"/><path d="M1265,1476L950,1580L2069,1555Z" fill="#292b2d" stroke="#292b2d" stroke-width="1.51"/><path d="M2364,805L2153,1174L2467,1275Z" fill="#28292b" stroke="#28292b" stroke-width="1.51"/><path d="M2295,-188L1978,-14L2531,161Z" fill="#30353b" stroke="#30353b" stroke-width="1.51"/><path d="M1978,-14L2105,451L2531,161Z" fill="#2e3237" stroke="#2e3237" stroke-width="1.51"/><path d="M2105,451L2364,805L2531,161Z" fill="#2b2f33" stroke="#2b2f33" stroke-width="1.51"/><path d="M2364,805L2467,1275L2531,161Z" fill="#2a2c2e" stroke="#2a2c2e" stroke-width="1.51"/><path d="M2519,-412L2295,-188L2531,161Z" fill="#30363d" stroke="#30363d" stroke-width="1.51"/><path d="M2069,-627L2295,-188L2519,-412Z" fill="#333b45" stroke="#333b45" stroke-width="1.51"/><path d="M1562,1415L1265,1476L2069,1555Z" fill="#282a2c" stroke="#282a2c" stroke-width="1.51"/><path d="M2153,1174L2227,1478L2467,1275Z" fill="#272829" stroke="#272829" stroke-width="1.51"/><path d="M1777,697L2153,1174L2364,805Z" fill="#292c2e" stroke="#292c2e" stroke-width="1.51"/><path d="M2105,451L1777,697L2364,805Z" fill="#2b2e31" stroke="#2b2e31" stroke-width="1.51"/><path d="M2069,-627L1978,-14L2295,-188Z" fill="#323a43" stroke="#323a43" stroke-width="1.51"/><path d="M1777,697L1689,981L2153,1174Z" fill="#2a2c2f" stroke="#2a2c2f" stroke-width="1.51"/><path d="M2153,1174L2069,1555L2227,1478Z" fill="#27292a" stroke="#27292a" stroke-width="1.51"/><path d="M1643,526L1747,579L1978,-14Z" fill="#2e3237" stroke="#2e3237" stroke-width="1.51"/><path d="M1500,-142L1978,-14L2069,-627Z" fill="#333b44" stroke="#333b44" stroke-width="1.51"/><path d="M1426,-411L1500,-142L2069,-627Z" fill="#353e48" stroke="#353e48" stroke-width="1.51"/><path d="M1978,-14L1747,579L2105,451Z" fill="#2e3236" stroke="#2e3236" stroke-width="1.51"/><path d="M1747,579L1777,697L2105,451Z" fill="#2c3034" stroke="#2c3034" stroke-width="1.51"/><path d="M1562,1415L2069,1555L2153,1174Z" fill="#28292b" stroke="#28292b" stroke-width="1.51"/><path d="M1689,981L1562,1415L2153,1174Z" fill="#292b2d" stroke="#292b2d" stroke-width="1.51"/><path d="M1500,-142L1643,526L1978,-14Z" fill="#30353b" stroke="#30353b" stroke-width="1.51"/><path d="M1500,-142L1210,230L1643,526Z" fill="#30363b" stroke="#30363b" stroke-width="1.51"/><path d="M1312,851L1689,981L1777,697Z" fill="#2b2e32" stroke="#2b2e32" stroke-width="1.51"/><path d="M1643,526L1312,851L1777,697Z" fill="#2c3034" stroke="#2c3034" stroke-width="1.51"/><path d="M1747,579L1643,526L1777,697Z" fill="#2c3034" stroke="#2c3034" stroke-width="1.51"/><path d="M1234,1297L1562,1415L1689,981Z" fill="#292c2f" stroke="#292c2f" stroke-width="1.51"/><path d="M1312,851L1234,1297L1689,981Z" fill="#2b2e31" stroke="#2b2e31" stroke-width="1.51"/><path d="M650,-372L965,-262L1426,-411Z" fill="#37414e" stroke="#37414e" stroke-width="1.51"/><path d="M1314,-140L1210,230L1500,-142Z" fill="#333941" stroke="#333941" stroke-width="1.51"/><path d="M1210,230L1312,851L1643,526Z" fill="#2e3337" stroke="#2e3337" stroke-width="1.51"/><path d="M1234,1297L1265,1476L1562,1415Z" fill="#2a2c2f" stroke="#2a2c2f" stroke-width="1.51"/><path d="M1426,-411L1314,-140L1500,-142Z" fill="#343c47" stroke="#343c47" stroke-width="1.51"/><path d="M965,-262L1314,-140L1426,-411Z" fill="#363e49" stroke="#363e49" stroke-width="1.51"/><path d="M581,513L578,620L1210,230Z" fill="#32383e" stroke="#32383e" stroke-width="1.51"/><path d="M965,-262L870,-212L1210,230Z" fill="#353d47" stroke="#353d47" stroke-width="1.51"/><path d="M1210,230L578,620L1312,851Z" fill="#30353a" stroke="#30353a" stroke-width="1.51"/><path d="M578,620L693,1017L1312,851Z" fill="#303339" stroke="#303339" stroke-width="1.51"/><path d="M693,1017L1234,1297L1312,851Z" fill="#2d3034" stroke="#2d3034" stroke-width="1.51"/><path d="M965,-262L1210,230L1314,-140Z" fill="#343b44" stroke="#343b44" stroke-width="1.51"/><path d="M1234,1297L950,1580L1265,1476Z" fill="#2b2d30" stroke="#2b2d30" stroke-width="1.51"/><path d="M693,1017L950,1580L1234,1297Z" fill="#2c3034" stroke="#2c3034" stroke-width="1.51"/><path d="M870,-212L516,272L1210,230Z" fill="#343b43" stroke="#343b43" stroke-width="1.51"/><path d="M516,272L581,513L1210,230Z" fill="#323940" stroke="#323940" stroke-width="1.51"/><path d="M12,-571L327,-380L650,-372Z" fill="#3c4858" stroke="#3c4858" stroke-width="1.51"/><path d="M693,1017L342,1097L950,1580Z" fill="#2e3237" stroke="#2e3237" stroke-width="1.51"/><path d="M342,1097L184,1525L950,1580Z" fill="#2e3338" stroke="#2e3338" stroke-width="1.51"/><path d="M650,-372L870,-212L965,-262Z" fill="#38424e" stroke="#38424e" stroke-width="1.51"/><path d="M650,-372L285,42L870,-212Z" fill="#38414d" stroke="#38414d" stroke-width="1.51"/><path d="M285,42L516,272L870,-212Z" fill="#373e48" stroke="#373e48" stroke-width="1.51"/><path d="M265,645L342,1097L578,620Z" fill="#32383e" stroke="#32383e" stroke-width="1.51"/><path d="M327,-380L285,42L650,-372Z" fill="#394451" stroke="#394451" stroke-width="1.51"/><path d="M578,620L342,1097L693,1017Z" fill="#30353b" stroke="#30353b" stroke-width="1.51"/><path d="M265,645L578,620L581,513Z" fill="#333940" stroke="#333940" stroke-width="1.51"/><path d="M516,272L265,645L581,513Z" fill="#333a42" stroke="#333a42" stroke-width="1.51"/><path d="M285,42L265,645L516,272Z" fill="#363d46" stroke="#363d46" stroke-width="1.51"/><path d="M98,679L265,645L285,42Z" fill="#363d46" stroke="#363d46" stroke-width="1.51"/><path d="M-176,153L98,679L285,42Z" fill="#38414c" stroke="#38414c" stroke-width="1.51"/><path d="M-168,-107L285,42L327,-380Z" fill="#3b4654" stroke="#3b4654" stroke-width="1.51"/><path d="M12,-571L-168,-107L327,-380Z" fill="#3d4a5b" stroke="#3d4a5b" stroke-width="1.51"/><path d="M-183,1184L184,1525L342,1097Z" fill="#31373f" stroke="#31373f" stroke-width="1.51"/><path d="M98,679L-183,1184L342,1097Z" fill="#333942" stroke="#333942" stroke-width="1.51"/><path d="M265,645L98,679L342,1097Z" fill="#333a41" stroke="#333a41" stroke-width="1.51"/><path d="M-183,1184L-91,1543L184,1525Z" fill="#323941" stroke="#323941" stroke-width="1.51"/><path d="M-168,-107L-176,153L285,42Z" fill="#3a4553" stroke="#3a4553" stroke-width="1.51"/><path d="M-248,-490L-168,-107L12,-571Z" fill="#3e4d60" stroke="#3e4d60" stroke-width="1.51"/><path d="M-176,153L-365,328L98,679Z" fill="#38424f" stroke="#38424f" stroke-width="1.51"/><path d="M-602,837L-183,1184L98,679Z" fill="#353e49" stroke="#353e49" stroke-width="1.51"/><path d="M-365,328L-602,837L98,679Z" fill="#37414f" stroke="#37414f" stroke-width="1.51"/><path d="M-183,1184L-528,1451L-91,1543Z" fill="#333b46" stroke="#333b46" stroke-width="1.51"/><path d="M-579,1219L-528,1451L-183,1184Z" fill="#353e49" stroke="#353e49" stroke-width="1.51"/><path d="M-602,837L-579,1219L-183,1184Z" fill="#363f4c" stroke="#363f4c" stroke-width="1.51"/><path d="M-397,8L-176,153L-168,-107Z" fill="#3c4857" stroke="#3c4857" stroke-width="1.51"/><path d="M-248,-490L-397,8L-168,-107Z" fill="#3e4c5e" stroke="#3e4c5e" stroke-width="1.51"/><path d="M-397,8L-365,328L-176,153Z" fill="#3b4755" stroke="#3b4755" stroke-width="1.51"/><path d="M-397,8L-602,837L-365,328Z" fill="#3a4655" stroke="#3a4655" stroke-width="1.51"/></svg>