<svg xmlns="http://www.w3.org/2000/svg" width="1920" height="1080"><path d="M-455,-654L724,-446L1436,-602Z" fill="#4b6c97" stroke="#4b6c97" stroke-width="1.51"/><path d="M1058,1630L687,1713L1470,1613Z" fill="#34393d" stroke="#34393d" stroke-width="1.51"/><path d="M-455,-654L1436,-602L1986,-655Z" fill="#4a6995" stroke="#4a6995" stroke-width="1.51"/><path d="M1470,1613L687,1713L2218,1615Z" fill="#313437" stroke="#313437" stroke-width="1.51"/><path d="M2197,680L2159,1028L2266,1115Z" fill="#323639" stroke="#323639" stroke-width="1.51"/><path d="M1942,-247L2208,70L2373,-504Z" fill="#3e4c60" stroke="#3e4c60" stroke-width="1.51"/><path d="M2208,70L2022,326L2456,179Z" fill="#39414a" stroke="#39414a" stroke-width="1.51"/><path d="M2022,326L2197,680L2456,179Z" fill="#373e45" stroke="#373e45" stroke-width="1.51"/><path d="M2266,1115L2218,1615L2456,179Z" fill="#313437" stroke="#313437" stroke-width="1.51"/><path d="M2197,680L2266,1115L2456,179Z" fill="#34393e" stroke="#34393e" stroke-width="1.51"/><path d="M2373,-504L2208,70L2456,179Z" fill="#3b4552" stroke="#3b4552" stroke-width="1.51"/><path d="M1943,1381L2218,1615L2266,1115Z" fill="#2f3133" stroke="#2f3133" stroke-width="1.51"/><path d="M1986,-655L1942,-247L2373,-504Z" fill="#425674" stroke="#425674" stroke-width="1.51"/><path d="M1956,890L2159,1028L2197,680Z" fill="#33373b" stroke="#33373b" stroke-width="1.51"/><path d="M2159,1028L1943,1381L2266,1115Z" fill="#303335" stroke="#303335" stroke-width="1.51"/><path d="M1943,1381L1470,1613L2218,1615Z" fill="#2f3133" stroke="#2f3133" stroke-width="1.51"/><path d="M2022,326L1956,890L2197,680Z" fill="#353b41" stroke="#353b41" stroke-width="1.51"/><path d="M1942,-247L2022,326L2208,70Z" fill="#3a4450" stroke="#3a4450" stroke-width="1.51"/><path d="M1604,596L1956,890L2022,326Z" fill="#373d43" stroke="#373d43" stroke-width="1.51"/><path d="M1956,890L1943,1381L2159,1028Z" fill="#323437" stroke="#323437" stroke-width="1.51"/><path d="M1500,1051L1943,1381L1956,890Z" fill="#333639" stroke="#333639" stroke-width="1.51"/><path d="M1436,-602L1942,-247L1986,-655Z" fill="#445a7b" stroke="#445a7b" stroke-width="1.51"/><path d="M1942,-247L1444,49L2022,326Z" fill="#3c4652" stroke="#3c4652" stroke-width="1.51"/><path d="M1444,49L1483,235L2022,326Z" fill="#3c4550" stroke="#3c4550" stroke-width="1.51"/><path d="M1483,235L1604,596L2022,326Z" fill="#3a414a" stroke="#3a414a" stroke-width="1.51"/><path d="M-455,-654L75,-441L724,-446Z" fill="#4c709f" stroke="#4c709f" stroke-width="1.51"/><path d="M1436,-602L1350,-427L1942,-247Z" fill="#445977" stroke="#445977" stroke-width="1.51"/><path d="M1604,596L1500,1051L1956,890Z" fill="#353b40" stroke="#353b40" stroke-width="1.51"/><path d="M1500,1051L1470,1613L1943,1381Z" fill="#323538" stroke="#323538" stroke-width="1.51"/><path d="M1350,-427L1444,49L1942,-247Z" fill="#415065" stroke="#415065" stroke-width="1.51"/><path d="M1171,1208L1470,1613L1500,1051Z" fill="#34383d" stroke="#34383d" stroke-width="1.51"/><path d="M1483,235L1024,392L1604,596Z" fill="#3b444f" stroke="#3b444f" stroke-width="1.51"/><path d="M1024,392L1345,823L1604,596Z" fill="#3a424a" stroke="#3a424a" stroke-width="1.51"/><path d="M1345,823L1500,1051L1604,596Z" fill="#373d43" stroke="#373d43" stroke-width="1.51"/><path d="M1350,-427L1133,28L1444,49Z" fill="#414f61" stroke="#414f61" stroke-width="1.51"/><path d="M1171,1208L1058,1630L1470,1613Z" fill="#34383d" stroke="#34383d" stroke-width="1.51"/><path d="M1345,823L1171,1208L1500,1051Z" fill="#363c42" stroke="#363c42" stroke-width="1.51"/><path d="M1444,49L1133,28L1483,235Z" fill="#3e4a58" stroke="#3e4a58" stroke-width="1.51"/><path d="M1133,28L1024,392L1483,235Z" fill="#3f4a56" stroke="#3f4a56" stroke-width="1.51"/><path d="M724,-446L1350,-427L1436,-602Z" fill="#476084" stroke="#476084" stroke-width="1.51"/><path d="M633,1037L1171,1208L1345,823Z" fill="#383f46" stroke="#383f46" stroke-width="1.51"/><path d="M724,-446L1133,28L1350,-427Z" fill="#455973" stroke="#455973" stroke-width="1.51"/><path d="M1024,392L582,905L1345,823Z" fill="#3c444e" stroke="#3c444e" stroke-width="1.51"/><path d="M582,905L633,1037L1345,823Z" fill="#3a434c" stroke="#3a434c" stroke-width="1.51"/><path d="M75,-441L312,-380L724,-446Z" fill="#4b688f" stroke="#4b688f" stroke-width="1.51"/><path d="M633,1037L687,1713L1058,1630Z" fill="#373d45" stroke="#373d45" stroke-width="1.51"/><path d="M724,-446L626,-159L1133,28Z" fill="#455870" stroke="#455870" stroke-width="1.51"/><path d="M633,1037L1058,1630L1171,1208Z" fill="#373d43" stroke="#373d43" stroke-width="1.51"/><path d="M615,321L1024,392L1133,28Z" fill="#404c5a" stroke="#404c5a" stroke-width="1.51"/><path d="M626,-159L615,321L1133,28Z" fill="#425162" stroke="#425162" stroke-width="1.51"/><path d="M615,321L582,905L1024,392Z" fill="#3f4956" stroke="#3f4956" stroke-width="1.51"/><path d="M445,301L161,655L582,905Z" fill="#404d5c" stroke="#404d5c" stroke-width="1.51"/><path d="M445,301L582,905L615,321Z" fill="#404c5b" stroke="#404c5b" stroke-width="1.51"/><path d="M445,301L615,321L626,-159Z" fill="#435264" stroke="#435264" stroke-width="1.51"/><path d="M278,1244L300,1351L633,1037Z" fill="#3b454f" stroke="#3b454f" stroke-width="1.51"/><path d="M633,1037L300,1351L687,1713Z" fill="#39414b" stroke="#39414b" stroke-width="1.51"/><path d="M312,-380L626,-159L724,-446Z" fill="#486182" stroke="#486182" stroke-width="1.51"/><path d="M300,1351L83,1668L687,1713Z" fill="#39414c" stroke="#39414c" stroke-width="1.51"/><path d="M190,-247L445,301L626,-159Z" fill="#46576d" stroke="#46576d" stroke-width="1.51"/><path d="M582,905L278,1244L633,1037Z" fill="#3b4550" stroke="#3b4550" stroke-width="1.51"/><path d="M312,-380L190,-247L626,-159Z" fill="#486180" stroke="#486180" stroke-width="1.51"/><path d="M106,1084L278,1244L582,905Z" fill="#3c4753" stroke="#3c4753" stroke-width="1.51"/><path d="M161,655L106,1084L582,905Z" fill="#3f4a59" stroke="#3f4a59" stroke-width="1.51"/><path d="M190,-247L14,227L445,301Z" fill="#46586d" stroke="#46586d" stroke-width="1.51"/><path d="M14,227L161,655L445,301Z" fill="#435365" stroke="#435365" stroke-width="1.51"/><path d="M75,-441L190,-247L312,-380Z" fill="#4b678d" stroke="#4b678d" stroke-width="1.51"/><path d="M278,1244L106,1084L300,1351Z" fill="#3c4653" stroke="#3c4653" stroke-width="1.51"/><path d="M106,1084L83,1668L300,1351Z" fill="#3c4653" stroke="#3c4653" stroke-width="1.51"/><path d="M-396,1235L83,1668L106,1084Z" fill="#3f4d61" stroke="#3f4d61" stroke-width="1.51"/><path d="M-276,641L106,1084L161,655Z" fill="#425267" stroke="#425267" stroke-width="1.51"/><path d="M-162,564L-276,641L161,655Z" fill="#455871" stroke="#455871" stroke-width="1.51"/><path d="M14,227L-162,564L161,655Z" fill="#45576e" stroke="#45576e" stroke-width="1.51"/><path d="M75,-441L-181,-255L190,-247Z" fill="#4b6a92" stroke="#4b6a92" stroke-width="1.51"/><path d="M-181,-255L14,227L190,-247Z" fill="#496180" stroke="#496180" stroke-width="1.51"/><path d="M-181,-255L-347,-62L14,227Z" fill="#4a6588" stroke="#4a6588" stroke-width="1.51"/><path d="M-258,370L-162,564L14,227Z" fill="#475d79" stroke="#475d79" stroke-width="1.51"/><path d="M-396,1235L-571,1588L83,1668Z" fill="#41526e" stroke="#41526e" stroke-width="1.51"/><path d="M-276,641L-396,1235L106,1084Z" fill="#43556f" stroke="#43556f" stroke-width="1.51"/><path d="M-455,-654L-181,-255L75,-441Z" fill="#4d77ae" stroke="#4d77ae" stroke-width="1.51"/><path d="M-347,-62L-258,370L14,227Z" fill="#496284" stroke="#496284" stroke-width="1.51"/><path d="M-258,370L-276,641L-162,564Z" fill="#475d7c" stroke="#475d7c" stroke-width="1.51"/><path d="M-455,-654L-347,-62L-181,-255Z" fill="#4d76ab" stroke="#4d76ab" stroke-width="1.51"/><path d="M-347,-62L-276,641L-258,370Z" fill="#496386" stroke="#496386" stroke-width="1.51"/><path d="M-347,-62L-571,1588L-276,641Z" fill="#476082" stroke="#476082" stroke-width="1.51"/><path d="M-571,1588L-396,1235L-276,641Z" fill="#445a7a" stroke="#445a7a" stroke-width="1.51"/><path d="M-455,-654L-571,1588L-347,-62Z" fill="#4a6892" stroke="#4a6892" stroke-width="1.51"/></svg>